<svg width="24" height="24" viewBox="0 0 24 24" fill="none" xmlns="http://www.w3.org/2000/svg">
<path d="M13.8807 5.99986V9.94022H11.9105C10.824 9.94022 9.94036 10.8238 9.94036 11.9104V17.8209H6V11.9104C6 11.2179 6.1194 10.5571 6.33831 9.94022C6.93136 8.26059 8.26073 6.93122 9.94036 6.33818C10.5573 6.11927 11.218 5.99986 11.9105 5.99986H13.8807Z" fill="#2564B0"/>
<path d="M15.8508 18.0001C17.0378 18.0001 18 17.0378 18 15.8508C18 14.6638 17.0378 13.7015 15.8508 13.7015C14.6637 13.7015 13.7015 14.6638 13.7015 15.8508C13.7015 17.0378 14.6637 18.0001 15.8508 18.0001Z" fill="#2564B0"/>
</svg>
