<svg width="222" height="48" viewBox="0 0 222 48" fill="none" xmlns="http://www.w3.org/2000/svg">
<g clip-path="url(#clip0_146_528)">
<path d="M30.2687 4V17.1343H23.7015C20.0796 17.1343 17.1343 20.0796 17.1343 23.7015V43.403H4V23.7015C4 21.3931 4.39801 19.1907 5.1277 17.1343C7.10448 11.5357 11.5357 7.10448 17.1343 5.1277C19.1907 4.39801 21.3931 4 23.7015 4H30.2687Z" fill="#2564B0"/>
<path d="M36.8361 44C40.7927 44 44.0003 40.7925 44.0003 36.8358C44.0003 32.8792 40.7927 29.6716 36.8361 29.6716C32.8794 29.6716 29.6719 32.8792 29.6719 36.8358C29.6719 40.7925 32.8794 44 36.8361 44Z" fill="#2564B0"/>
<path d="M73.5583 43.39L68.2515 35.7747C68.0259 35.8013 67.6943 35.8145 67.2432 35.8145H61.3792V43.39H56.5367V17.3866H67.2299C69.4853 17.3866 71.4488 17.7581 73.1205 18.5011C74.7921 19.244 76.079 20.3054 76.9679 21.6984C77.8568 23.0915 78.3079 24.7366 78.3079 26.6337C78.3079 28.584 77.8303 30.2689 76.875 31.6885C75.9198 33.0948 74.5533 34.1561 72.7755 34.846L78.759 43.39H73.5583ZM71.807 22.8128C70.7192 21.924 69.1138 21.4729 67.0177 21.4729H61.3659V31.8344H67.0177C69.1271 31.8344 70.7192 31.3833 71.807 30.4812C72.8949 29.579 73.4389 28.2921 73.4389 26.6337C73.4389 24.9754 72.8949 23.7017 71.807 22.8128Z" fill="#2564B0"/>
<path d="M100.159 34.9654H84.5833C84.8619 36.4248 85.5651 37.579 86.7193 38.4414C87.8735 39.2904 89.3064 39.7283 91.0045 39.7283C93.1803 39.7283 94.9846 39.0118 96.3909 37.579L98.8851 40.4447C97.9963 41.506 96.8686 42.3153 95.5021 42.8593C94.1356 43.4032 92.6098 43.6818 90.8984 43.6818C88.7226 43.6818 86.7989 43.244 85.1405 42.3817C83.4821 41.5193 82.1952 40.312 81.2931 38.7598C80.3909 37.2075 79.9398 35.4563 79.9398 33.506C79.9398 31.569 80.3777 29.8311 81.2533 28.2921C82.1289 26.7398 83.3495 25.5325 84.915 24.6702C86.4805 23.8078 88.2317 23.37 90.1953 23.37C92.1322 23.37 93.8569 23.7946 95.3827 24.6569C96.9084 25.506 98.0891 26.7133 98.9515 28.2656C99.8006 29.8178 100.238 31.6088 100.238 33.6387C100.225 33.904 100.199 34.3684 100.159 34.9654ZM86.4274 28.3717C85.4059 29.2473 84.769 30.4148 84.5568 31.8874H95.8072C95.6082 30.4546 94.9979 29.2871 93.9896 28.3982C92.9681 27.5093 91.7077 27.0583 90.1953 27.0583C88.7093 27.045 87.449 27.4828 86.4274 28.3717Z" fill="#2564B0"/>
<path d="M121.213 23.5558L112.709 43.39H107.919L99.4153 23.5558H104.244L110.4 38.2689L116.755 23.5558H121.213Z" fill="#2564B0"/>
<path d="M122.659 19.496C122.089 18.9654 121.81 18.302 121.81 17.506C121.81 16.71 122.089 16.0466 122.659 15.5159C123.23 14.9853 123.933 14.7199 124.782 14.7199C125.618 14.7199 126.334 14.972 126.905 15.4761C127.475 15.9803 127.754 16.6171 127.754 17.3866C127.754 18.2091 127.475 18.8858 126.918 19.443C126.361 20.0002 125.645 20.2788 124.782 20.2788C123.933 20.2921 123.23 20.0267 122.659 19.496ZM122.447 23.5557H127.091V43.3899H122.447V23.5557Z" fill="#2564B0"/>
<path d="M150.082 34.9654H134.507C134.785 36.4248 135.489 37.579 136.643 38.4414C137.797 39.2904 139.23 39.7283 140.928 39.7283C143.104 39.7283 144.908 39.0118 146.315 37.579L148.809 40.4447C147.92 41.506 146.792 42.3153 145.426 42.8593C144.059 43.4032 142.533 43.6818 140.822 43.6818C138.646 43.6818 136.722 43.244 135.064 42.3817C133.406 41.5193 132.119 40.312 131.217 38.7598C130.315 37.2075 129.863 35.4563 129.863 33.506C129.863 31.569 130.301 29.8311 131.177 28.2921C132.052 26.7398 133.273 25.5325 134.839 24.6702C136.404 23.8078 138.155 23.37 140.119 23.37C142.056 23.37 143.781 23.7946 145.306 24.6569C146.832 25.506 148.013 26.7133 148.875 28.2656C149.724 29.8178 150.162 31.6088 150.162 33.6387C150.149 33.904 150.122 34.3684 150.082 34.9654ZM136.351 28.3717C135.329 29.2473 134.693 30.4148 134.48 31.8874H145.731C145.532 30.4546 144.921 29.2871 143.913 28.3982C142.892 27.5093 141.631 27.0583 140.119 27.0583C138.633 27.045 137.386 27.4828 136.351 28.3717Z" fill="#2564B0"/>
<path d="M183.515 23.5558L176.192 43.39H171.734L166.613 29.7249L161.413 43.39H156.955L149.671 23.5558H154.049L159.29 38.1893L164.756 23.5558H168.656L174.003 38.2689L179.389 23.5558H183.515V23.5558Z" fill="#2564B0"/>
<path d="M203.044 34.9654H187.482C187.761 36.4248 188.464 37.579 189.618 38.4414C190.772 39.2904 192.205 39.7283 193.903 39.7283C196.079 39.7283 197.884 39.0118 199.29 37.579L201.784 40.4447C200.895 41.506 199.767 42.3153 198.401 42.8593C197.034 43.4032 195.509 43.6818 193.797 43.6818C191.621 43.6818 189.698 43.244 188.039 42.3817C186.381 41.5193 185.094 40.312 184.192 38.7598C183.29 37.2075 182.839 35.4563 182.839 33.506C182.839 31.569 183.277 29.8311 184.152 28.2921C185.028 26.7398 186.248 25.5325 187.814 24.6702C189.379 23.8078 191.131 23.37 193.094 23.37C195.031 23.37 196.756 23.7946 198.282 24.6569C199.807 25.506 200.988 26.7133 201.85 28.2656C202.699 29.8178 203.137 31.6088 203.137 33.6387C203.124 33.904 203.097 34.3684 203.044 34.9654ZM189.326 28.3717C188.305 29.2473 187.668 30.4148 187.456 31.8874H198.706C198.507 30.4546 197.897 29.2871 196.888 28.3982C195.867 27.5093 194.607 27.0583 193.094 27.0583C191.608 27.045 190.348 27.4828 189.326 28.3717Z" fill="#2564B0"/>
<path d="M217.386 23.3301V27.748C216.988 27.6684 216.63 27.6419 216.311 27.6419C214.507 27.6419 213.087 28.1726 212.079 29.2207C211.058 30.2688 210.553 31.7945 210.553 33.7712V43.3898H205.91V23.5556H210.328V26.4479C211.668 24.3782 214.016 23.3301 217.386 23.3301Z" fill="#2564B0"/>
</g>
<defs>
<clipPath id="clip0_146_528">
<rect width="213.387" height="40" fill="white" transform="translate(4 4)"/>
</clipPath>
</defs>
</svg>
