<svg width="111" height="24" viewBox="0 0 111 24" fill="none" xmlns="http://www.w3.org/2000/svg">
<g clip-path="url(#clip0_165_1036)">
<path d="M15.1343 2V8.56717H11.8508C10.0398 8.56717 8.56717 10.0398 8.56717 11.8508V21.7015H2V11.8508C2 10.6965 2.19901 9.59537 2.56385 8.56717C3.55224 5.76783 5.76783 3.55224 8.56717 2.56385C9.59537 2.19901 10.6965 2 11.8508 2H15.1343Z" fill="#317AD4"/>
<path d="M18.418 22C20.3964 22 22.0001 20.3962 22.0001 18.4179C22.0001 16.4396 20.3964 14.8358 18.418 14.8358C16.4397 14.8358 14.8359 16.4396 14.8359 18.4179C14.8359 20.3962 16.4397 22 18.418 22Z" fill="#317AD4"/>
<path d="M36.7792 21.695L34.1258 17.8874C34.013 17.9006 33.8472 17.9073 33.6216 17.9073H30.6896V21.695H28.2684V8.69331H33.615C34.7427 8.69331 35.7244 8.87905 36.5603 9.25053C37.3961 9.622 38.0395 10.1527 38.484 10.8492C38.9284 11.5457 39.154 12.3683 39.154 13.3169C39.154 14.292 38.9152 15.1344 38.4375 15.8442C37.9599 16.5474 37.2767 17.0781 36.3878 17.423L39.3795 21.695H36.7792ZM35.9035 11.4064C35.3596 10.962 34.5569 10.7364 33.5088 10.7364H30.683V15.9172H33.5088C34.5636 15.9172 35.3596 15.6917 35.9035 15.2406C36.4475 14.7895 36.7195 14.1461 36.7195 13.3169C36.7195 12.4877 36.4475 11.8509 35.9035 11.4064Z" fill="#317AD4"/>
<path d="M50.0794 17.4827H42.2917C42.431 18.2124 42.7826 18.7895 43.3597 19.2207C43.9368 19.6452 44.6532 19.8641 45.5023 19.8641C46.5902 19.8641 47.4924 19.5059 48.1955 18.7895L49.4426 20.2223C48.9982 20.753 48.4343 21.1577 47.7511 21.4296C47.0678 21.7016 46.305 21.8409 45.4492 21.8409C44.3614 21.8409 43.3995 21.622 42.5703 21.1908C41.7411 20.7597 41.0977 20.156 40.6466 19.3799C40.1955 18.6038 39.97 17.7281 39.97 16.753C39.97 15.7845 40.1889 14.9155 40.6267 14.146C41.0645 13.3699 41.6748 12.7663 42.4575 12.3351C43.2403 11.9039 44.1159 11.685 45.0977 11.685C46.0662 11.685 46.9285 11.8973 47.6914 12.3285C48.4542 12.753 49.0446 13.3567 49.4758 14.1328C49.9003 14.9089 50.1192 15.8044 50.1192 16.8193C50.1126 16.952 50.0993 17.1842 50.0794 17.4827ZM43.2138 14.1858C42.703 14.6237 42.3846 15.2074 42.2784 15.9437H47.9036C47.8041 15.2273 47.499 14.6436 46.9949 14.1991C46.4841 13.7547 45.8539 13.5291 45.0977 13.5291C44.3547 13.5225 43.7245 13.7414 43.2138 14.1858Z" fill="#317AD4"/>
<path d="M60.6065 11.7779L56.3544 21.695H53.9597L49.7076 11.7779H52.1222L55.2002 19.1345L58.3776 11.7779H60.6065Z" fill="#317AD4"/>
<path d="M61.3298 9.74802C61.0445 9.48268 60.9052 9.151 60.9052 8.75299C60.9052 8.35498 61.0445 8.02331 61.3298 7.75797C61.615 7.49262 61.9666 7.35995 62.3911 7.35995C62.809 7.35995 63.1672 7.48599 63.4525 7.73806C63.7377 7.99014 63.877 8.30855 63.877 8.69329C63.877 9.10457 63.7377 9.44288 63.4591 9.72148C63.1805 10.0001 62.8223 10.1394 62.3911 10.1394C61.9666 10.146 61.615 10.0134 61.3298 9.74802ZM61.2236 11.7779H63.5453V21.695H61.2236V11.7779Z" fill="#317AD4"/>
<path d="M75.0412 17.4827H67.2535C67.3928 18.2124 67.7444 18.7895 68.3215 19.2207C68.8986 19.6452 69.615 19.8641 70.4641 19.8641C71.552 19.8641 72.4542 19.5059 73.1573 18.7895L74.4044 20.2223C73.96 20.753 73.3961 21.1577 72.7129 21.4296C72.0296 21.7016 71.2668 21.8409 70.411 21.8409C69.3231 21.8409 68.3613 21.622 67.5321 21.1908C66.7029 20.7597 66.0595 20.156 65.6084 19.3799C65.1573 18.6038 64.9318 17.7281 64.9318 16.753C64.9318 15.7845 65.1507 14.9155 65.5885 14.146C66.0263 13.3699 66.6366 12.7663 67.4193 12.3351C68.2021 11.9039 69.0777 11.685 70.0595 11.685C71.028 11.685 71.8903 11.8973 72.6532 12.3285C73.416 12.753 74.0064 13.3567 74.4376 14.1328C74.8621 14.9089 75.081 15.8044 75.081 16.8193C75.0744 16.952 75.0611 17.1842 75.0412 17.4827ZM68.1755 14.1858C67.6648 14.6237 67.3464 15.2074 67.2402 15.9437H72.8654C72.7659 15.2273 72.4608 14.6436 71.9566 14.1991C71.4459 13.7547 70.8157 13.5291 70.0595 13.5291C69.3165 13.5225 68.693 13.7414 68.1755 14.1858Z" fill="#317AD4"/>
<path d="M91.7577 11.7779L88.096 21.695H85.8672L83.3066 14.8625L80.7063 21.695H78.4774L74.8356 11.7779H77.0247L79.6449 19.0947L82.3779 11.7779H84.3282L87.0015 19.1345L89.6947 11.7779H91.7577V11.7779Z" fill="#317AD4"/>
<path d="M101.522 17.4827H93.7411C93.8804 18.2124 94.232 18.7895 94.8091 19.2207C95.3862 19.6452 96.1026 19.8641 96.9517 19.8641C98.0396 19.8641 98.9418 19.5059 99.6449 18.7895L100.892 20.2223C100.448 20.753 99.8837 21.1577 99.2005 21.4296C98.5172 21.7016 97.7544 21.8409 96.8986 21.8409C95.8108 21.8409 94.8489 21.622 94.0197 21.1908C93.1905 20.7597 92.5471 20.156 92.096 19.3799C91.6449 18.6038 91.4194 17.7281 91.4194 16.753C91.4194 15.7845 91.6383 14.9155 92.0761 14.146C92.5139 13.3699 93.1242 12.7663 93.9069 12.3351C94.6897 11.9039 95.5653 11.685 96.5471 11.685C97.5156 11.685 98.3779 11.8973 99.1408 12.3285C99.9036 12.753 100.494 13.3567 100.925 14.1328C101.35 14.9089 101.569 15.8044 101.569 16.8193C101.562 16.952 101.549 17.1842 101.522 17.4827ZM94.6632 14.1858C94.1524 14.6237 93.834 15.2074 93.7278 15.9437H99.353C99.2535 15.2273 98.9484 14.6436 98.4443 14.1991C97.9335 13.7547 97.3033 13.5291 96.5471 13.5291C95.8041 13.5225 95.1739 13.7414 94.6632 14.1858Z" fill="#317AD4"/>
<path d="M108.693 11.6651V13.874C108.494 13.8342 108.315 13.8209 108.156 13.8209C107.254 13.8209 106.544 14.0863 106.04 14.6103C105.529 15.1344 105.277 15.8972 105.277 16.8856V21.6949H102.955V11.7778H105.164V13.2239C105.834 12.1891 107.008 11.6651 108.693 11.6651Z" fill="#317AD4"/>
</g>
<defs>
<clipPath id="clip0_165_1036">
<rect width="106.693" height="20" fill="white" transform="translate(2 2)"/>
</clipPath>
</defs>
</svg>
