<svg width="16" height="16" viewBox="0 0 16 16" fill="none" xmlns="http://www.w3.org/2000/svg">
<path d="M9.25381 3.99991V6.62681H7.94036C7.21597 6.62681 6.6269 7.21588 6.6269 7.94027V11.8806H4V7.94027C4 7.47857 4.0796 7.0381 4.22554 6.62681C4.6209 5.50706 5.50715 4.62081 6.6269 4.22545C7.03819 4.07951 7.47866 3.99991 7.94036 3.99991H9.25381Z" fill="#2564B0"/>
<path d="M10.5672 12.0001C11.3585 12.0001 12 11.3586 12 10.5672C12 9.77587 11.3585 9.13435 10.5672 9.13435C9.77583 9.13435 9.13432 9.77587 9.13432 10.5672C9.13432 11.3586 9.77583 12.0001 10.5672 12.0001Z" fill="#2564B0"/>
</svg>
