<svg width="48" height="48" viewBox="0 0 48 48" fill="none" xmlns="http://www.w3.org/2000/svg">
<path d="M30.2688 4V17.1345H23.7015C20.0796 17.1345 17.1343 20.0798 17.1343 23.7018V43.4035H3.99976V23.7018C3.99976 21.3933 4.39777 19.1909 5.12747 17.1345C7.10428 11.5358 11.5355 7.10452 17.1343 5.12771C19.1907 4.39802 21.393 4 23.7015 4H30.2688Z" fill="#2564B0"/>
<path d="M37.4331 44.0006C41.3898 44.0006 44.5974 40.793 44.5974 36.8363C44.5974 32.8796 41.3898 29.672 37.4331 29.672C33.4764 29.672 30.2688 32.8796 30.2688 36.8363C30.2688 40.793 33.4764 44.0006 37.4331 44.0006Z" fill="#2564B0"/>
</svg>
